<svg width="24" height="24" viewBox="0 0 24 24" fill="none" xmlns="http://www.w3.org/2000/svg">
<path d="M11.9997 2.41531e-06C9.20177 -0.00177203 6.49115 0.974216 4.33654 2.75921C2.18193 4.54421 0.718794 7.02599 0.200112 9.77545C-0.31857 12.5249 0.139813 15.3692 1.496 17.8165C2.85219 20.2638 5.02093 22.1603 7.62723 23.178C7.52223 22.2285 7.42623 20.769 7.66773 19.7325C7.88673 18.795 9.07473 13.767 9.07473 13.767C9.07473 13.767 8.71623 13.0485 8.71623 11.9865C8.71623 10.317 9.68373 9.072 10.8882 9.072C11.9112 9.072 12.4062 9.84 12.4062 10.7625C12.4062 11.7915 11.7507 13.3305 11.4117 14.757C11.1297 15.951 12.0117 16.926 13.1892 16.926C15.3222 16.926 16.9617 14.676 16.9617 11.43C16.9617 8.5575 14.8962 6.549 11.9487 6.549C8.53473 6.549 6.53073 9.1095 6.53073 11.7555C6.53073 12.7875 6.92823 13.893 7.42323 14.4945C7.46585 14.5398 7.496 14.5955 7.51072 14.6559C7.52544 14.7164 7.52424 14.7796 7.50723 14.8395C7.41573 15.2175 7.21323 16.0335 7.17423 16.2C7.12173 16.419 7.00023 16.4655 6.77223 16.3605C5.27223 15.663 4.33623 13.4715 4.33623 11.7105C4.33623 7.926 7.08723 4.4505 12.2652 4.4505C16.4277 4.4505 19.6632 7.416 19.6632 11.3805C19.6632 15.516 17.0547 18.8445 13.4367 18.8445C12.2202 18.8445 11.0772 18.213 10.6857 17.466L9.93873 20.319C9.66723 21.3615 8.93523 22.668 8.44623 23.4645C10.0962 23.9747 11.8368 24.1227 13.5492 23.8984C15.2616 23.6741 16.9054 23.0829 18.3684 22.1651C19.8313 21.2472 21.0789 20.0244 22.0259 18.5802C22.973 17.136 23.5971 15.5044 23.8557 13.7968C24.1143 12.0893 24.0012 10.346 23.5243 8.68613C23.0474 7.02626 22.2178 5.4889 21.0922 4.17906C19.9666 2.86921 18.5716 1.81776 17.0024 1.09652C15.4332 0.375287 13.7268 0.00126345 11.9997 2.41531e-06Z" fill="#1A1A1A"/>
</svg>
